<svg width="430" height="209" viewBox="0 0 430 209" fill="none" xmlns="http://www.w3.org/2000/svg">
<g clip-path="url(#clip0_31_47845)">
<path d="M522.43 89.5786C522.43 89.5786 456.89 -80.0914 370.51 47.5886C370.51 47.5886 344.05 20.4987 341.54 121.419C341.54 121.419 278.54 34.6386 198.12 152.709C198.12 152.709 178.8 107.029 152.2 190.269C152.2 190.269 142.73 153.429 69.39 204.599C-3.94998 255.769 0.440014 262.599 0.440014 262.599L121.31 229.039C191.61 209.519 265.26 206.499 336.58 219.959C371.75 226.599 407.55 229.279 443.33 228.349L748.6 220.439L591.38 163.349L578.01 126.559C569.59 103.389 547.06 88.3886 522.43 89.5786Z" fill="url(#paint0_linear_31_47845)"/>
</g>
<defs>
<linearGradient id="paint0_linear_31_47845" x1="365.002" y1="329.995" x2="410.115" y2="-91.3229" gradientUnits="userSpaceOnUse">
<stop stop-color="#4F42AC"/>
<stop offset="1" stop-color="#141243"/>
</linearGradient>
<clipPath id="clip0_31_47845">
<rect width="430" height="209" fill="white"/>
</clipPath>
</defs>
</svg>
