<svg width="849" height="251" viewBox="0 0 849 251" fill="none" xmlns="http://www.w3.org/2000/svg">
<g opacity="0.73">
<path d="M780.178 11.0449H775.003H73.1904H68.016C68.016 11.0449 26.2031 50.4827 26.2031 125.11C26.2031 199.737 68.016 239.175 68.016 239.175H73.1904H774.993H780.168C780.168 239.175 821.981 199.737 821.981 125.11C821.981 50.4827 780.178 11.0449 780.178 11.0449Z" fill="url(#paint0_linear_31_40408)"/>
</g>
<path d="M836.847 125.1C820.886 120.832 825.832 50.4827 825.832 50.4827L818.11 46.1083C791.691 29.4718 793.91 11.0449 793.91 11.0449H756.286L783.83 26.6652C779.073 50.2795 807.97 67.0128 807.97 67.0128C807.97 67.0128 807.592 94.7305 807.97 105.386C808.348 116.041 794.288 125.11 794.288 125.11C794.288 125.11 808.348 134.168 807.97 144.833C807.592 155.489 807.97 183.207 807.97 183.207C807.97 183.207 779.073 199.94 783.83 223.554L756.286 239.175H793.91C793.91 239.175 791.691 220.748 818.11 204.111L825.832 199.737C825.832 199.727 820.886 129.368 836.847 125.1Z" fill="url(#paint1_linear_31_40408)"/>
<path d="M11.3368 125.1C27.2977 120.832 22.3522 50.4827 22.3522 50.4827L30.074 46.1083C56.4931 29.4718 54.2741 11.0449 54.2741 11.0449H91.8977L64.3542 26.6652C69.1106 50.2795 40.2137 67.0128 40.2137 67.0128C40.2137 67.0128 40.5919 94.7305 40.2137 105.386C39.8356 116.041 53.896 125.11 53.896 125.11C53.896 125.11 39.8356 134.168 40.2137 144.833C40.5919 155.489 40.2137 183.207 40.2137 183.207C40.2137 183.207 69.1106 199.94 64.3542 223.554L91.8977 239.175H54.2741C54.2741 239.175 56.4931 220.748 30.074 204.111L22.3522 199.737C22.3622 199.727 27.2977 129.368 11.3368 125.1Z" fill="url(#paint2_linear_31_40408)"/>
<g filter="url(#filter0_d_31_40408)">
<path d="M199.201 74.8911H243.076V95.1411H225.514V114.329H241.951V133.579H225.514V155.829H244.826V176.079H199.201V74.8911ZM305.451 74.8911V95.1411H289.826V176.079H263.514V95.1411H247.951V74.8911H305.451ZM311.451 74.8911H355.326V95.1411H337.764V114.329H354.201V133.579H337.764V155.829H357.076V176.079H311.451V74.8911ZM364.701 74.8911H383.326C395.743 74.8911 404.139 75.3703 408.514 76.3286C412.93 77.2869 416.514 79.7453 419.264 83.7036C422.055 87.6203 423.451 93.8911 423.451 102.516C423.451 110.391 422.472 115.683 420.514 118.391C418.555 121.099 414.701 122.724 408.951 123.266C414.159 124.558 417.659 126.287 419.451 128.454C421.243 130.62 422.347 132.62 422.764 134.454C423.222 136.245 423.451 141.224 423.451 149.391V176.079H399.014V142.454C399.014 137.037 398.576 133.683 397.701 132.391C396.868 131.099 394.639 130.454 391.014 130.454V176.079H364.701V74.8911ZM391.014 92.2036V114.704C393.972 114.704 396.034 114.308 397.201 113.516C398.409 112.683 399.014 110.037 399.014 105.579V100.016C399.014 96.8078 398.43 94.7036 397.264 93.7036C396.139 92.7036 394.055 92.2036 391.014 92.2036ZM492.451 74.8911V176.079H469.389L455.701 130.079V176.079H433.701V74.8911H455.701L470.451 120.454V74.8911H492.451ZM529.389 74.8911V176.079H503.076V74.8911H529.389ZM592.951 74.8911V95.1411H577.326V176.079H551.014V95.1411H535.451V74.8911H592.951ZM655.014 74.8911L635.826 139.454V176.079H611.451V139.454L592.951 74.8911H617.139C620.93 94.5994 623.055 107.87 623.514 114.704C624.972 103.912 627.409 90.6411 630.826 74.8911H655.014Z" fill="#FFD600"/>
</g>
<defs>
<filter id="filter0_d_31_40408" x="195.201" y="74.8911" width="463.813" height="109.188" filterUnits="userSpaceOnUse" color-interpolation-filters="sRGB">
<feFlood flood-opacity="0" result="BackgroundImageFix"/>
<feColorMatrix in="SourceAlpha" type="matrix" values="0 0 0 0 0 0 0 0 0 0 0 0 0 0 0 0 0 0 127 0" result="hardAlpha"/>
<feOffset dy="4"/>
<feGaussianBlur stdDeviation="2"/>
<feComposite in2="hardAlpha" operator="out"/>
<feColorMatrix type="matrix" values="0 0 0 0 0 0 0 0 0 0 0 0 0 0 0 0 0 0 0.25 0"/>
<feBlend mode="normal" in2="BackgroundImageFix" result="effect1_dropShadow_31_40408"/>
<feBlend mode="normal" in="SourceGraphic" in2="effect1_dropShadow_31_40408" result="shape"/>
</filter>
<linearGradient id="paint0_linear_31_40408" x1="424.095" y1="44.3659" x2="424.095" y2="217.392" gradientUnits="userSpaceOnUse">
<stop offset="0.0124" stop-color="#78CCEE"/>
<stop offset="1" stop-color="#23328C"/>
</linearGradient>
<linearGradient id="paint1_linear_31_40408" x1="796.57" y1="51.5472" x2="796.57" y2="201.587" gradientUnits="userSpaceOnUse">
<stop offset="0.0124" stop-color="#684095"/>
<stop offset="1" stop-color="#E187AD"/>
</linearGradient>
<linearGradient id="paint2_linear_31_40408" x1="51.6199" y1="51.5472" x2="51.6199" y2="201.587" gradientUnits="userSpaceOnUse">
<stop offset="0.0124" stop-color="#684095"/>
<stop offset="1" stop-color="#E187AD"/>
</linearGradient>
</defs>
</svg>
