<svg width="430" height="97" viewBox="0 0 430 97" fill="none" xmlns="http://www.w3.org/2000/svg">
<g clip-path="url(#clip0_73_73504)">
<path d="M-53.9918 5.6716C-53.9918 5.6716 196.136 -8.81213 482.4 8.51154L-53.9918 5.6716Z" fill="#C49A6C"/>
<path d="M-54.0401 5.67163C-54.0401 5.67163 -57.6468 6.23962 -54.0401 8.51158C-50.4333 10.7835 435.978 10.2496 481.321 11.5106C481.321 11.5106 486.731 8.79557 481.321 8.51158C475.911 8.22758 -54.0401 5.67163 -54.0401 5.67163Z" fill="#603913"/>
<path d="M-52.4015 8.70459C-52.4015 8.70459 -55.3209 13.0554 -46.3013 14.1914C-37.2816 15.3273 -38.6078 19.3033 -38.6078 19.3033C-38.6078 19.3033 -41.1269 36.0306 -20.9661 35.7466C-3.56009 35.5023 24.757 35.7466 24.757 35.7466L24.2629 23.5632C24.2629 23.5632 77.8498 6.23952 122.681 25.8351V35.207L142.842 36.3429V26.4031C142.842 26.4031 200.939 2.2636 265.4 27.8231V36.9081H285.458L285.561 28.3911C285.561 28.3911 338.349 5.10354 398.568 30.3791L399.099 40.0349H448.176C452.728 40.0434 460.85 32.0887 461.438 27.2551C461.535 26.4628 483.456 24.0062 481.068 11.3514L-52.4015 8.70459Z" fill="url(#paint0_linear_73_73504)"/>
<path d="M243.529 18.3152C184.993 -1.05043 142.05 26.6873 142.05 26.6873V35.7723L153.458 32.9068V28.6753C160.918 23.3504 172.079 20.377 184.132 18.832C206.434 17.8125 238.355 18.6446 253.997 29.8113V34.0428L265.406 36.9083V27.8233C265.403 27.8233 257.374 22.6376 243.529 18.3152Z" fill="url(#paint1_linear_73_73504)"/>
<path d="M399.102 30.663C399.102 30.663 364.576 8.51145 292.93 30.663V35.2069L285.458 36.9081L285.552 28.3911C285.555 28.3911 339.534 -0.00838661 399.102 30.663Z" fill="url(#paint2_linear_73_73504)"/>
<path d="M113.928 32.4778L122.684 35.207L142.05 35.7721L153.458 32.9066C153.458 32.9066 155.048 33.503 153.458 35.207L142.05 38.666H122.684L113.928 35.207C113.928 35.207 111.012 33.787 113.928 32.4778Z" fill="#603913"/>
<path d="M253.995 34.071L265.403 36.911L285.563 36.627L292.99 34.639C292.99 34.639 294.316 35.491 292.726 37.195L282.874 40.0349H263.508L255.054 37.195C255.057 37.195 252.935 35.207 253.995 34.071Z" fill="#603913"/>
<path d="M11.7302 81.7821L16.5155 100.81L138.747 96.2658C270.106 95.6922 406.108 105.413 406.108 105.413L411.649 86.326C180.752 61.0505 11.7302 81.7821 11.7302 81.7821Z" fill="url(#paint3_linear_73_73504)"/>
<path d="M17.3676 83.4859L21.6133 98.5376L205.451 91.7218C320.316 97.6857 403.083 101.094 403.083 101.094L406.003 89.4498C186.935 69.2067 17.3676 83.4859 17.3676 83.4859Z" fill="url(#paint4_linear_73_73504)"/>
<path d="M411.649 86.326L443.002 83.77L448.179 100.526L406.108 105.413L411.649 86.326Z" fill="url(#paint5_linear_73_73504)"/>
<path d="M11.7302 81.7593L-19.6199 79.2261L-24.2803 95.8966L17.271 100.847L11.7302 81.7593Z" fill="url(#paint6_linear_73_73504)"/>
<path d="M71.2185 13.6233C24.2657 16.4632 10.8811 25.02 10.8811 25.02L10.8413 35.7465H24.757L24.2458 25.02L70.8153 16.8693C81.414 17.9599 110.455 21.4615 112.881 27.255V32.4777L122.681 35.2069V25.8351C122.684 25.8351 102.256 16.4632 71.2185 13.6233Z" fill="url(#paint7_linear_73_73504)"/>
<path d="M9.41002 21.8594V30.6632H-27.9211C-27.9211 30.6632 -36.2194 30.3792 -33.0358 19.5874C-33.0358 19.5874 -31.9737 13.0555 -43.6458 13.3395C-43.6458 13.3395 -49.4819 13.3395 -49.4819 10.2156L9.41002 11.5106L69.6481 11.4481C69.6481 11.4481 12.8577 13.0555 9.41002 21.8594Z" fill="url(#paint8_linear_73_73504)"/>
<path d="M81.8286 11.6355C81.8286 11.6355 117.921 17.2245 124.147 24.3698V33.8495H139.962V25.023C139.962 25.023 163.043 11.5446 184.246 10.738L81.8286 11.6355Z" fill="url(#paint9_linear_73_73504)"/>
<path d="M224.814 12.7715C224.814 12.7715 261.282 19.9509 267.507 27.0962V36.5759H283.323V27.7494C283.323 27.7494 308.644 18.4542 327.606 13.4644L224.814 12.7715Z" fill="url(#paint10_linear_73_73504)"/>
<path d="M403.844 25.9884V36.6269H443.382C443.382 36.6269 456.591 37.1721 453.22 24.1311C453.22 24.1311 455.713 20.0955 468.075 20.4392C468.075 20.4392 478.157 17.3976 478.157 13.6233L403.847 13.4841L340.048 13.4075C340.045 13.4075 400.192 15.35 403.844 25.9884Z" fill="url(#paint11_linear_73_73504)"/>
<path d="M138.108 39.5665L138.017 38.652H137.821C137.807 38.6122 137.798 38.5867 137.798 38.5867H127.983L127.876 39.6942C126.316 44.8033 120.017 67.3297 127.654 74.6227C129.753 76.6277 131.607 77.1673 133.209 76.8379C134.714 76.9969 136.427 76.3892 138.346 74.5574C146.017 67.236 139.633 44.5534 138.108 39.5665Z" fill="url(#paint12_linear_73_73504)"/>
<path d="M277.85 41.1282L277.759 40.2138H277.563C277.549 40.174 277.541 40.1484 277.541 40.1484H267.726L267.618 41.256C266.059 46.3651 259.76 68.8915 267.396 76.1845C269.495 78.1895 271.35 78.7291 272.951 78.3997C274.456 78.5587 276.169 77.9509 278.089 76.1192C285.757 68.7978 279.375 46.118 277.85 41.1282Z" fill="url(#paint13_linear_73_73504)"/>
<path d="M452.456 40.0066H399.065V42.8465H452.456V40.0066Z" fill="#603913"/>
<path d="M442.411 83.8185C442.411 83.8185 334.445 75.2163 289.159 76.926L411.649 86.3262L442.411 83.8185Z" fill="url(#paint14_linear_73_73504)"/>
<path d="M429.029 43.9341L428.938 42.9203H428.742C428.728 42.8748 428.719 42.8464 428.719 42.8464H418.904L418.797 44.0761C417.237 49.7532 410.938 74.7845 418.575 82.884C420.674 85.1105 422.528 85.7097 424.13 85.3462C425.635 85.5223 427.348 84.8464 429.267 82.8101C436.938 74.6794 430.554 49.4749 429.029 43.9341Z" fill="url(#paint15_linear_73_73504)"/>
<path d="M-18.4072 79.5585C-18.4072 79.5585 82.5642 72.9442 127.85 74.6539L12.3551 82.0661L-18.4072 79.5585Z" fill="url(#paint16_linear_73_73504)"/>
<path d="M-5.02549 39.6744L-4.93462 38.6605H-4.73866C-4.72446 38.6151 -4.71594 38.5867 -4.71594 38.5867H5.09892L5.20683 39.8164C6.76596 45.4934 13.065 70.5247 5.42835 78.6242C3.32963 80.8507 1.47514 81.45 -0.126592 81.0864C-1.63176 81.2625 -3.34424 80.5866 -5.26405 78.5504C-12.9347 70.4196 -6.55054 45.2151 -5.02549 39.6744Z" fill="url(#paint17_linear_73_73504)"/>
<path d="M23.2803 37.9249H-27.2707C-28.0545 37.9249 -28.6907 37.2888 -28.6907 36.5049C-28.6907 35.7211 -28.0545 35.085 -27.2707 35.085H23.2803C24.0642 35.085 24.7003 35.7211 24.7003 36.5049C24.7003 37.2888 24.0642 37.9249 23.2803 37.9249Z" fill="#603913"/>
<path d="M278.875 44.1728H267.8C265.448 44.1728 263.54 42.2643 263.54 39.9128H283.135C283.135 42.2643 281.227 44.1728 278.875 44.1728Z" fill="url(#paint18_linear_73_73504)"/>
<path d="M138.582 42.1847H127.506C125.155 42.1847 123.246 40.2763 123.246 37.9248H142.842C142.842 40.2763 140.934 42.1847 138.582 42.1847Z" fill="url(#paint19_linear_73_73504)"/>
<path d="M418.317 47.0126H429.393C431.744 47.0126 433.653 45.1042 433.653 42.7527H414.057C414.057 45.1042 415.965 47.0126 418.317 47.0126Z" fill="url(#paint20_linear_73_73504)"/>
<path d="M-5.40317 42.1847H5.67262C8.02409 42.1847 9.93254 40.2763 9.93254 37.9248H-9.66309C-9.66309 40.2763 -7.75464 42.1847 -5.40317 42.1847Z" fill="url(#paint21_linear_73_73504)"/>
</g>
<defs>
<linearGradient id="paint0_linear_73_73504" x1="-52.851" y1="24.3697" x2="481.255" y2="24.3697" gradientUnits="userSpaceOnUse">
<stop stop-color="#3C2415"/>
<stop offset="0.3145" stop-color="#C49A6C"/>
<stop offset="1" stop-color="#603913"/>
</linearGradient>
<linearGradient id="paint1_linear_73_73504" x1="203.577" y1="48.1583" x2="203.872" y2="15.5249" gradientUnits="userSpaceOnUse">
<stop stop-color="#FFF200"/>
<stop offset="0.6261" stop-color="#C49A6C"/>
<stop offset="1" stop-color="#603913"/>
</linearGradient>
<linearGradient id="paint2_linear_73_73504" x1="341.845" y1="42.5145" x2="342.625" y2="21.5467" gradientUnits="userSpaceOnUse">
<stop stop-color="#FFF200"/>
<stop offset="0.6261" stop-color="#C49A6C"/>
<stop offset="1" stop-color="#603913"/>
</linearGradient>
<linearGradient id="paint3_linear_73_73504" x1="212.041" y1="62.2726" x2="211.848" y2="74.2726" gradientUnits="userSpaceOnUse">
<stop stop-color="#FFF200"/>
<stop offset="0.4062" stop-color="#C49A6C"/>
<stop offset="1" stop-color="#603913"/>
</linearGradient>
<linearGradient id="paint4_linear_73_73504" x1="17.409" y1="91.2561" x2="405.998" y2="89.1821" gradientUnits="userSpaceOnUse">
<stop stop-color="#3C2415"/>
<stop offset="0.3145" stop-color="#C49A6C"/>
<stop offset="1" stop-color="#603913"/>
</linearGradient>
<linearGradient id="paint5_linear_73_73504" x1="423.856" y1="71.7301" x2="427.692" y2="108.184" gradientUnits="userSpaceOnUse">
<stop stop-color="#3C2415"/>
<stop offset="0.3145" stop-color="#C49A6C"/>
<stop offset="1" stop-color="#603913"/>
</linearGradient>
<linearGradient id="paint6_linear_73_73504" x1="-0.42652" y1="69.1223" x2="-4.29282" y2="105.863" gradientUnits="userSpaceOnUse">
<stop stop-color="#3C2415"/>
<stop offset="0.3145" stop-color="#C49A6C"/>
<stop offset="1" stop-color="#603913"/>
</linearGradient>
<linearGradient id="paint7_linear_73_73504" x1="66.2155" y1="43.7451" x2="67.3459" y2="16.5782" gradientUnits="userSpaceOnUse">
<stop stop-color="#FFF200"/>
<stop offset="0.6261" stop-color="#C49A6C"/>
<stop offset="1" stop-color="#603913"/>
</linearGradient>
<linearGradient id="paint8_linear_73_73504" x1="10.8733" y1="37.5465" x2="10.0815" y2="10.8176" gradientUnits="userSpaceOnUse">
<stop stop-color="#3C2415"/>
<stop offset="0.3145" stop-color="#C49A6C"/>
<stop offset="1" stop-color="#603913"/>
</linearGradient>
<linearGradient id="paint9_linear_73_73504" x1="133.352" y1="41.6212" x2="133.059" y2="13.1183" gradientUnits="userSpaceOnUse">
<stop stop-color="#3C2415"/>
<stop offset="0.3145" stop-color="#C49A6C"/>
<stop offset="1" stop-color="#603913"/>
</linearGradient>
<linearGradient id="paint10_linear_73_73504" x1="275.568" y1="46.6952" x2="276.245" y2="11.2988" gradientUnits="userSpaceOnUse">
<stop stop-color="#3C2415"/>
<stop offset="0.3145" stop-color="#C49A6C"/>
<stop offset="1" stop-color="#603913"/>
</linearGradient>
<linearGradient id="paint11_linear_73_73504" x1="407.805" y1="43.986" x2="409.077" y2="14.0871" gradientUnits="userSpaceOnUse">
<stop stop-color="#3C2415"/>
<stop offset="0.3145" stop-color="#C49A6C"/>
<stop offset="1" stop-color="#603913"/>
</linearGradient>
<linearGradient id="paint12_linear_73_73504" x1="163.838" y1="7.77195" x2="118.089" y2="80.937" gradientUnits="userSpaceOnUse">
<stop offset="0.3357" stop-color="#FFF200"/>
<stop offset="0.5776" stop-color="#C49A6C"/>
<stop offset="0.7773" stop-color="#603913"/>
</linearGradient>
<linearGradient id="paint13_linear_73_73504" x1="252.289" y1="4.22404" x2="281.976" y2="85.2473" gradientUnits="userSpaceOnUse">
<stop offset="0.451" stop-color="#FFF200"/>
<stop offset="0.5702" stop-color="#C49A6C"/>
<stop offset="0.8252" stop-color="#603913"/>
</linearGradient>
<linearGradient id="paint14_linear_73_73504" x1="365.676" y1="64.5587" x2="365.837" y2="87.9141" gradientUnits="userSpaceOnUse">
<stop offset="0.451" stop-color="#FFF200"/>
<stop offset="0.6261" stop-color="#C49A6C"/>
<stop offset="1" stop-color="#603913"/>
</linearGradient>
<linearGradient id="paint15_linear_73_73504" x1="402.556" y1="1.87262" x2="433.364" y2="92.6591" gradientUnits="userSpaceOnUse">
<stop offset="0.451" stop-color="#FFF200"/>
<stop offset="0.5702" stop-color="#C49A6C"/>
<stop offset="0.8252" stop-color="#603913"/>
</linearGradient>
<linearGradient id="paint16_linear_73_73504" x1="54.808" y1="64.5291" x2="54.6782" y2="83.3848" gradientUnits="userSpaceOnUse">
<stop offset="0.451" stop-color="#FFF200"/>
<stop offset="0.6261" stop-color="#C49A6C"/>
<stop offset="1" stop-color="#603913"/>
</linearGradient>
<linearGradient id="paint17_linear_73_73504" x1="34.4288" y1="-0.213877" x2="-13.5689" y2="82.7771" gradientUnits="userSpaceOnUse">
<stop offset="0.4882" stop-color="#FFF200"/>
<stop offset="0.6261" stop-color="#C49A6C"/>
<stop offset="0.8862" stop-color="#603913"/>
</linearGradient>
<linearGradient id="paint18_linear_73_73504" x1="273.303" y1="34.9281" x2="273.371" y2="44.7457" gradientUnits="userSpaceOnUse">
<stop offset="0.451" stop-color="#FFF200"/>
<stop offset="0.6261" stop-color="#C49A6C"/>
<stop offset="1" stop-color="#603913"/>
</linearGradient>
<linearGradient id="paint19_linear_73_73504" x1="133.01" y1="32.9401" x2="133.077" y2="42.7577" gradientUnits="userSpaceOnUse">
<stop offset="0.451" stop-color="#FFF200"/>
<stop offset="0.6261" stop-color="#C49A6C"/>
<stop offset="1" stop-color="#603913"/>
</linearGradient>
<linearGradient id="paint20_linear_73_73504" x1="423.889" y1="37.768" x2="423.821" y2="47.5856" gradientUnits="userSpaceOnUse">
<stop offset="0.451" stop-color="#FFF200"/>
<stop offset="0.6261" stop-color="#C49A6C"/>
<stop offset="1" stop-color="#603913"/>
</linearGradient>
<linearGradient id="paint21_linear_73_73504" x1="0.169032" y1="32.9401" x2="0.101527" y2="42.7577" gradientUnits="userSpaceOnUse">
<stop offset="0.451" stop-color="#FFF200"/>
<stop offset="0.6261" stop-color="#C49A6C"/>
<stop offset="1" stop-color="#603913"/>
</linearGradient>
<clipPath id="clip0_73_73504">
<rect width="430" height="105" fill="white"/>
</clipPath>
</defs>
</svg>
