<svg width="1440" height="92" viewBox="0 0 1440 92" fill="none" xmlns="http://www.w3.org/2000/svg">
<g clip-path="url(#clip0_31_30052)">
<g clip-path="url(#clip1_31_30052)">
<path d="M-53.9918 5.6716C-53.9918 5.6716 196.136 -8.81213 482.4 8.51154L-53.9918 5.6716Z" fill="#C49A6C"/>
<path d="M-54.0401 5.67139C-54.0401 5.67139 -57.6468 6.23938 -54.0401 8.51133C-50.4334 10.7833 435.978 10.2494 481.321 11.5103C481.321 11.5103 486.731 8.79533 481.321 8.51133C475.911 8.22734 -54.0401 5.67139 -54.0401 5.67139Z" fill="#603913"/>
<path d="M-52.4014 8.70459C-52.4014 8.70459 -55.3209 13.0554 -46.3012 14.1914C-37.2816 15.3273 -38.6078 19.3033 -38.6078 19.3033C-38.6078 19.3033 -41.1269 36.0306 -20.9661 35.7466C-3.56007 35.5023 24.757 35.7466 24.757 35.7466L24.2629 23.5632C24.2629 23.5632 77.8498 6.23952 122.681 25.8351V35.207L142.842 36.3429V26.4031C142.842 26.4031 200.939 2.2636 265.4 27.8231V36.9081H285.458L285.561 28.3911C285.561 28.3911 338.349 5.10354 398.568 30.3791L399.099 40.0349H448.176C452.728 40.0434 460.85 32.0887 461.438 27.2551C461.535 26.4628 483.456 24.0062 481.068 11.3514L-52.4014 8.70459Z" fill="url(#paint0_linear_31_30052)"/>
<path d="M243.529 18.3149C184.992 -1.05067 142.05 26.6871 142.05 26.6871V35.7721L153.458 32.9066V28.675C160.918 23.3501 172.079 20.3767 184.132 18.8318C206.434 17.8122 238.355 18.6443 253.997 29.811V34.0425L265.405 36.908V27.823C265.403 27.823 257.374 22.6373 243.529 18.3149Z" fill="url(#paint1_linear_31_30052)"/>
<path d="M399.102 30.6633C399.102 30.6633 364.576 8.51169 292.93 30.6633V35.2072L285.458 36.9083L285.552 28.3913C285.555 28.3913 339.534 -0.00814247 399.102 30.6633Z" fill="url(#paint2_linear_31_30052)"/>
<path d="M113.928 32.478L122.684 35.2072L142.05 35.7724L153.458 32.9069C153.458 32.9069 155.048 33.5032 153.458 35.2072L142.05 38.6663H122.684L113.928 35.2072C113.928 35.2072 111.012 33.7872 113.928 32.478Z" fill="#603913"/>
<path d="M253.995 34.0708L265.403 36.9107L285.563 36.6268L292.99 34.6388C292.99 34.6388 294.316 35.4908 292.726 37.1947L282.874 40.0347H263.508L255.054 37.1947C255.057 37.1947 252.935 35.2068 253.995 34.0708Z" fill="#603913"/>
<path d="M11.7302 81.7824L16.5155 100.81L138.747 96.2661C270.106 95.6924 406.108 105.414 406.108 105.414L411.648 86.3263C180.752 61.0508 11.7302 81.7824 11.7302 81.7824Z" fill="url(#paint3_linear_31_30052)"/>
<path d="M17.3675 83.4862L21.6132 98.5379L205.451 91.722C320.316 97.6859 403.083 101.094 403.083 101.094L406.003 89.4501C186.935 69.2069 17.3675 83.4862 17.3675 83.4862Z" fill="url(#paint4_linear_31_30052)"/>
<path d="M411.648 86.326L443.001 83.77L448.179 100.526L406.108 105.413L411.648 86.326Z" fill="url(#paint5_linear_31_30052)"/>
<path d="M11.7302 81.7593L-19.6199 79.2261L-24.2803 95.8966L17.271 100.847L11.7302 81.7593Z" fill="url(#paint6_linear_31_30052)"/>
<path d="M71.2186 13.6235C24.2658 16.4635 10.8811 25.0202 10.8811 25.0202L10.8414 35.7467H24.7571L24.2459 25.0202L70.8153 16.8696C81.414 17.9601 110.455 21.4618 112.881 27.2553V32.4779L122.681 35.2071V25.8353C122.684 25.8353 102.256 16.4635 71.2186 13.6235Z" fill="url(#paint7_linear_31_30052)"/>
<path d="M9.40997 21.8591V30.6629H-27.9211C-27.9211 30.6629 -36.2194 30.3789 -33.0359 19.5872C-33.0359 19.5872 -31.9737 13.0553 -43.6459 13.3393C-43.6459 13.3393 -49.482 13.3393 -49.482 10.2153L9.40997 11.5103L69.6481 11.4479C69.6481 11.4479 12.8577 13.0553 9.40997 21.8591Z" fill="url(#paint8_linear_31_30052)"/>
<path d="M81.8286 11.6357C81.8286 11.6357 117.921 17.2247 124.147 24.37V33.8498H139.962V25.0232C139.962 25.0232 163.043 11.5448 184.246 10.7383L81.8286 11.6357Z" fill="url(#paint9_linear_31_30052)"/>
<path d="M224.814 12.7715C224.814 12.7715 261.282 19.9509 267.507 27.0962V36.5759H283.323V27.7494C283.323 27.7494 308.644 18.4542 327.606 13.4644L224.814 12.7715Z" fill="url(#paint10_linear_31_30052)"/>
<path d="M403.844 25.9887V36.6271H443.382C443.382 36.6271 456.591 37.1724 453.22 24.1313C453.22 24.1313 455.713 20.0958 468.075 20.4394C468.075 20.4394 478.157 17.3978 478.157 13.6235L403.847 13.4844L340.048 13.4077C340.045 13.4077 400.192 15.3502 403.844 25.9887Z" fill="url(#paint11_linear_31_30052)"/>
<path d="M138.108 39.5662L138.017 38.6517H137.821C137.807 38.612 137.798 38.5864 137.798 38.5864H127.983L127.875 39.694C126.316 44.8031 120.017 67.3295 127.654 74.6225C129.753 76.6275 131.607 77.1671 133.209 76.8377C134.714 76.9967 136.427 76.3889 138.346 74.5572C146.017 67.2358 139.633 44.5532 138.108 39.5662Z" fill="url(#paint12_linear_31_30052)"/>
<path d="M277.85 41.1282L277.759 40.2138H277.563C277.549 40.174 277.541 40.1484 277.541 40.1484H267.726L267.618 41.256C266.059 46.3651 259.76 68.8915 267.396 76.1845C269.495 78.1895 271.35 78.7291 272.951 78.3997C274.456 78.5587 276.169 77.9509 278.089 76.1192C285.757 68.7978 279.375 46.118 277.85 41.1282Z" fill="url(#paint13_linear_31_30052)"/>
<path d="M452.456 40.0063H399.065V42.8463H452.456V40.0063Z" fill="#603913"/>
<path d="M442.411 83.8185C442.411 83.8185 334.445 75.2163 289.159 76.926L411.649 86.3262L442.411 83.8185Z" fill="url(#paint14_linear_31_30052)"/>
<path d="M429.029 43.9344L428.938 42.9205H428.742C428.728 42.8751 428.719 42.8467 428.719 42.8467H418.905L418.797 44.0764C417.237 49.7534 410.938 74.7847 418.575 82.8842C420.674 85.1107 422.528 85.71 424.13 85.3465C425.635 85.5225 427.348 84.8466 429.267 82.8104C436.938 74.6796 430.554 49.4751 429.029 43.9344Z" fill="url(#paint15_linear_31_30052)"/>
<path d="M-18.4073 79.5585C-18.4073 79.5585 82.5641 72.9442 127.85 74.6539L12.355 82.0661L-18.4073 79.5585Z" fill="url(#paint16_linear_31_30052)"/>
<path d="M-5.02549 39.6741L-4.93462 38.6603H-4.73866C-4.72446 38.6148 -4.71594 38.5864 -4.71594 38.5864H5.09892L5.20683 39.8161C6.76596 45.4932 13.065 70.5244 5.42835 78.624C3.32963 80.8505 1.47514 81.4497 -0.126592 81.0862C-1.63176 81.2623 -3.34424 80.5864 -5.26405 78.5501C-12.9347 70.4194 -6.55054 45.2148 -5.02549 39.6741Z" fill="url(#paint17_linear_31_30052)"/>
<path d="M23.2803 37.9249H-27.2708C-28.0546 37.9249 -28.6907 37.2888 -28.6907 36.5049C-28.6907 35.7211 -28.0546 35.085 -27.2708 35.085H23.2803C24.0641 35.085 24.7002 35.7211 24.7002 36.5049C24.7002 37.2888 24.0641 37.9249 23.2803 37.9249Z" fill="#603913"/>
<path d="M278.875 44.1725H267.8C265.448 44.1725 263.54 42.2641 263.54 39.9126H283.135C283.135 42.2641 281.227 44.1725 278.875 44.1725Z" fill="url(#paint18_linear_31_30052)"/>
<path d="M138.582 42.1847H127.506C125.155 42.1847 123.246 40.2763 123.246 37.9248H142.842C142.842 40.2763 140.934 42.1847 138.582 42.1847Z" fill="url(#paint19_linear_31_30052)"/>
<path d="M418.317 47.0128H429.393C431.744 47.0128 433.653 45.1044 433.653 42.7529H414.057C414.057 45.1044 415.965 47.0128 418.317 47.0128Z" fill="url(#paint20_linear_31_30052)"/>
<path d="M-5.40319 42.1847H5.6726C8.02407 42.1847 9.93252 40.2763 9.93252 37.9248H-9.66311C-9.66311 40.2763 -7.75466 42.1847 -5.40319 42.1847Z" fill="url(#paint21_linear_31_30052)"/>
</g>
<g clip-path="url(#clip2_31_30052)">
<path d="M376.008 5.6716C376.008 5.6716 626.136 -8.81213 912.4 8.51154L376.008 5.6716Z" fill="#C49A6C"/>
<path d="M375.96 5.67139C375.96 5.67139 372.353 6.23938 375.96 8.51133C379.567 10.7833 865.978 10.2494 911.321 11.5103C911.321 11.5103 916.731 8.79533 911.321 8.51133C905.911 8.22734 375.96 5.67139 375.96 5.67139Z" fill="#603913"/>
<path d="M377.599 8.70459C377.599 8.70459 374.679 13.0554 383.699 14.1914C392.718 15.3273 391.392 19.3033 391.392 19.3033C391.392 19.3033 388.873 36.0306 409.034 35.7466C426.44 35.5023 454.757 35.7466 454.757 35.7466L454.263 23.5632C454.263 23.5632 507.85 6.23952 552.681 25.8351V35.207L572.842 36.3429V26.4031C572.842 26.4031 630.939 2.2636 695.4 27.8231V36.9081H715.458L715.561 28.3911C715.561 28.3911 768.349 5.10354 828.568 30.3791L829.099 40.0349H878.176C882.728 40.0434 890.85 32.0887 891.438 27.2551C891.535 26.4628 913.456 24.0062 911.068 11.3514L377.599 8.70459Z" fill="url(#paint22_linear_31_30052)"/>
<path d="M673.529 18.3149C614.993 -1.05067 572.05 26.6871 572.05 26.6871V35.7721L583.458 32.9066V28.675C590.918 23.3501 602.079 20.3767 614.132 18.8318C636.434 17.8122 668.355 18.6443 683.997 29.811V34.0425L695.406 36.908V27.823C695.403 27.823 687.374 22.6373 673.529 18.3149Z" fill="url(#paint23_linear_31_30052)"/>
<path d="M829.102 30.6633C829.102 30.6633 794.576 8.51169 722.93 30.6633V35.2072L715.458 36.9083L715.552 28.3913C715.555 28.3913 769.534 -0.00814247 829.102 30.6633Z" fill="url(#paint24_linear_31_30052)"/>
<path d="M543.928 32.478L552.684 35.2072L572.05 35.7724L583.458 32.9069C583.458 32.9069 585.048 33.5032 583.458 35.2072L572.05 38.6663H552.684L543.928 35.2072C543.928 35.2072 541.012 33.7872 543.928 32.478Z" fill="#603913"/>
<path d="M683.995 34.0708L695.403 36.9107L715.563 36.6268L722.99 34.6388C722.99 34.6388 724.316 35.4908 722.726 37.1947L712.874 40.0347H693.508L685.054 37.1947C685.057 37.1947 682.935 35.2068 683.995 34.0708Z" fill="#603913"/>
<path d="M441.73 81.7824L446.516 100.81L568.747 96.2661C700.106 95.6924 836.108 105.414 836.108 105.414L841.648 86.3263C610.752 61.0508 441.73 81.7824 441.73 81.7824Z" fill="url(#paint25_linear_31_30052)"/>
<path d="M447.368 83.4862L451.613 98.5379L635.451 91.722C750.316 97.6859 833.083 101.094 833.083 101.094L836.003 89.4501C616.935 69.2069 447.368 83.4862 447.368 83.4862Z" fill="url(#paint26_linear_31_30052)"/>
<path d="M841.649 86.326L873.002 83.77L878.179 100.526L836.108 105.413L841.649 86.326Z" fill="url(#paint27_linear_31_30052)"/>
<path d="M441.73 81.7593L410.38 79.2261L405.72 95.8966L447.271 100.847L441.73 81.7593Z" fill="url(#paint28_linear_31_30052)"/>
<path d="M501.219 13.6235C454.266 16.4635 440.881 25.0202 440.881 25.0202L440.841 35.7467H454.757L454.246 25.0202L500.815 16.8696C511.414 17.9601 540.455 21.4618 542.881 27.2553V32.4779L552.681 35.2071V25.8353C552.684 25.8353 532.256 16.4635 501.219 13.6235Z" fill="url(#paint29_linear_31_30052)"/>
<path d="M439.41 21.8591V30.6629H402.079C402.079 30.6629 393.781 30.3789 396.964 19.5872C396.964 19.5872 398.026 13.0553 386.354 13.3393C386.354 13.3393 380.518 13.3393 380.518 10.2153L439.41 11.5103L499.648 11.4479C499.648 11.4479 442.858 13.0553 439.41 21.8591Z" fill="url(#paint30_linear_31_30052)"/>
<path d="M511.829 11.6357C511.829 11.6357 547.921 17.2247 554.147 24.37V33.8498H569.962V25.0232C569.962 25.0232 593.043 11.5448 614.246 10.7383L511.829 11.6357Z" fill="url(#paint31_linear_31_30052)"/>
<path d="M654.814 12.7715C654.814 12.7715 691.282 19.9509 697.507 27.0962V36.5759H713.323V27.7494C713.323 27.7494 738.644 18.4542 757.606 13.4644L654.814 12.7715Z" fill="url(#paint32_linear_31_30052)"/>
<path d="M833.844 25.9887V36.6271H873.382C873.382 36.6271 886.591 37.1724 883.22 24.1313C883.22 24.1313 885.713 20.0958 898.075 20.4394C898.075 20.4394 908.157 17.3978 908.157 13.6235L833.847 13.4844L770.048 13.4077C770.045 13.4077 830.192 15.3502 833.844 25.9887Z" fill="url(#paint33_linear_31_30052)"/>
<path d="M568.108 39.5662L568.017 38.6517H567.821C567.807 38.612 567.798 38.5864 567.798 38.5864H557.983L557.876 39.694C556.316 44.8031 550.017 67.3295 557.654 74.6225C559.753 76.6275 561.607 77.1671 563.209 76.8377C564.714 76.9967 566.427 76.3889 568.346 74.5572C576.017 67.2358 569.633 44.5532 568.108 39.5662Z" fill="url(#paint34_linear_31_30052)"/>
<path d="M707.85 41.1282L707.759 40.2138H707.563C707.549 40.174 707.541 40.1484 707.541 40.1484H697.726L697.618 41.256C696.059 46.3651 689.76 68.8915 697.396 76.1845C699.495 78.1895 701.35 78.7291 702.951 78.3997C704.456 78.5587 706.169 77.9509 708.089 76.1192C715.757 68.7978 709.375 46.118 707.85 41.1282Z" fill="url(#paint35_linear_31_30052)"/>
<path d="M882.456 40.0063H829.065V42.8463H882.456V40.0063Z" fill="#603913"/>
<path d="M872.411 83.8185C872.411 83.8185 764.445 75.2163 719.159 76.926L841.649 86.3262L872.411 83.8185Z" fill="url(#paint36_linear_31_30052)"/>
<path d="M859.029 43.9344L858.938 42.9205H858.742C858.728 42.8751 858.719 42.8467 858.719 42.8467H848.905L848.797 44.0764C847.237 49.7534 840.938 74.7847 848.575 82.8842C850.674 85.1107 852.528 85.71 854.13 85.3465C855.635 85.5225 857.348 84.8466 859.267 82.8104C866.938 74.6796 860.554 49.4751 859.029 43.9344Z" fill="url(#paint37_linear_31_30052)"/>
<path d="M411.593 79.5585C411.593 79.5585 512.564 72.9442 557.85 74.6539L442.355 82.0661L411.593 79.5585Z" fill="url(#paint38_linear_31_30052)"/>
<path d="M424.975 39.6741L425.065 38.6603H425.261C425.276 38.6148 425.284 38.5864 425.284 38.5864H435.099L435.207 39.8161C436.766 45.4932 443.065 70.5244 435.428 78.624C433.33 80.8505 431.475 81.4497 429.873 81.0862C428.368 81.2623 426.656 80.5864 424.736 78.5501C417.065 70.4194 423.449 45.2148 424.975 39.6741Z" fill="url(#paint39_linear_31_30052)"/>
<path d="M453.28 37.9249H402.729C401.945 37.9249 401.309 37.2888 401.309 36.5049C401.309 35.7211 401.945 35.085 402.729 35.085H453.28C454.064 35.085 454.7 35.7211 454.7 36.5049C454.7 37.2888 454.064 37.9249 453.28 37.9249Z" fill="#603913"/>
<path d="M708.875 44.1725H697.8C695.448 44.1725 693.54 42.2641 693.54 39.9126H713.135C713.135 42.2641 711.227 44.1725 708.875 44.1725Z" fill="url(#paint40_linear_31_30052)"/>
<path d="M568.582 42.1847H557.506C555.155 42.1847 553.246 40.2763 553.246 37.9248H572.842C572.842 40.2763 570.934 42.1847 568.582 42.1847Z" fill="url(#paint41_linear_31_30052)"/>
<path d="M848.317 47.0128H859.393C861.744 47.0128 863.653 45.1044 863.653 42.7529H844.057C844.057 45.1044 845.965 47.0128 848.317 47.0128Z" fill="url(#paint42_linear_31_30052)"/>
<path d="M424.597 42.1847H435.673C438.024 42.1847 439.933 40.2763 439.933 37.9248H420.337C420.337 40.2763 422.245 42.1847 424.597 42.1847Z" fill="url(#paint43_linear_31_30052)"/>
</g>
<g clip-path="url(#clip3_31_30052)">
<path d="M806.008 5.6716C806.008 5.6716 1056.14 -8.81213 1342.4 8.51154L806.008 5.6716Z" fill="#C49A6C"/>
<path d="M805.96 5.67139C805.96 5.67139 802.353 6.23938 805.96 8.51133C809.567 10.7833 1295.98 10.2494 1341.32 11.5103C1341.32 11.5103 1346.73 8.79533 1341.32 8.51133C1335.91 8.22734 805.96 5.67139 805.96 5.67139Z" fill="#603913"/>
<path d="M807.599 8.70459C807.599 8.70459 804.679 13.0554 813.699 14.1914C822.718 15.3273 821.392 19.3033 821.392 19.3033C821.392 19.3033 818.873 36.0306 839.034 35.7466C856.44 35.5023 884.757 35.7466 884.757 35.7466L884.263 23.5632C884.263 23.5632 937.85 6.23952 982.681 25.8351V35.207L1002.84 36.3429V26.4031C1002.84 26.4031 1060.94 2.2636 1125.4 27.8231V36.9081H1145.46L1145.56 28.3911C1145.56 28.3911 1198.35 5.10354 1258.57 30.3791L1259.1 40.0349H1308.18C1312.73 40.0434 1320.85 32.0887 1321.44 27.2551C1321.53 26.4628 1343.46 24.0062 1341.07 11.3514L807.599 8.70459Z" fill="url(#paint44_linear_31_30052)"/>
<path d="M1103.53 18.3149C1044.99 -1.05067 1002.05 26.6871 1002.05 26.6871V35.7721L1013.46 32.9066V28.675C1020.92 23.3501 1032.08 20.3767 1044.13 18.8318C1066.43 17.8122 1098.36 18.6443 1114 29.811V34.0425L1125.41 36.908V27.823C1125.4 27.823 1117.37 22.6373 1103.53 18.3149Z" fill="url(#paint45_linear_31_30052)"/>
<path d="M1259.1 30.6633C1259.1 30.6633 1224.58 8.51169 1152.93 30.6633V35.2072L1145.46 36.9083L1145.55 28.3913C1145.55 28.3913 1199.53 -0.00814247 1259.1 30.6633Z" fill="url(#paint46_linear_31_30052)"/>
<path d="M973.928 32.478L982.684 35.2072L1002.05 35.7724L1013.46 32.9069C1013.46 32.9069 1015.05 33.5032 1013.46 35.2072L1002.05 38.6663H982.684L973.928 35.2072C973.928 35.2072 971.012 33.7872 973.928 32.478Z" fill="#603913"/>
<path d="M1113.99 34.0708L1125.4 36.9107L1145.56 36.6268L1152.99 34.6388C1152.99 34.6388 1154.32 35.4908 1152.73 37.1947L1142.87 40.0347H1123.51L1115.05 37.1947C1115.06 37.1947 1112.94 35.2068 1113.99 34.0708Z" fill="#603913"/>
<path d="M871.73 81.7824L876.516 100.81L998.747 96.2661C1130.11 95.6924 1266.11 105.414 1266.11 105.414L1271.65 86.3263C1040.75 61.0508 871.73 81.7824 871.73 81.7824Z" fill="url(#paint47_linear_31_30052)"/>
<path d="M877.368 83.4862L881.613 98.5379L1065.45 91.722C1180.32 97.6859 1263.08 101.094 1263.08 101.094L1266 89.4501C1046.94 69.2069 877.368 83.4862 877.368 83.4862Z" fill="url(#paint48_linear_31_30052)"/>
<path d="M1271.65 86.326L1303 83.77L1308.18 100.526L1266.11 105.413L1271.65 86.326Z" fill="url(#paint49_linear_31_30052)"/>
<path d="M871.73 81.7593L840.38 79.2261L835.72 95.8966L877.271 100.847L871.73 81.7593Z" fill="url(#paint50_linear_31_30052)"/>
<path d="M931.219 13.6235C884.266 16.4635 870.881 25.0202 870.881 25.0202L870.841 35.7467H884.757L884.246 25.0202L930.815 16.8696C941.414 17.9601 970.455 21.4618 972.881 27.2553V32.4779L982.681 35.2071V25.8353C982.684 25.8353 962.256 16.4635 931.219 13.6235Z" fill="url(#paint51_linear_31_30052)"/>
<path d="M869.41 21.8591V30.6629H832.079C832.079 30.6629 823.781 30.3789 826.964 19.5872C826.964 19.5872 828.026 13.0553 816.354 13.3393C816.354 13.3393 810.518 13.3393 810.518 10.2153L869.41 11.5103L929.648 11.4479C929.648 11.4479 872.858 13.0553 869.41 21.8591Z" fill="url(#paint52_linear_31_30052)"/>
<path d="M941.829 11.6357C941.829 11.6357 977.921 17.2247 984.147 24.37V33.8498H999.962V25.0232C999.962 25.0232 1023.04 11.5448 1044.25 10.7383L941.829 11.6357Z" fill="url(#paint53_linear_31_30052)"/>
<path d="M1084.81 12.7715C1084.81 12.7715 1121.28 19.9509 1127.51 27.0962V36.5759H1143.32V27.7494C1143.32 27.7494 1168.64 18.4542 1187.61 13.4644L1084.81 12.7715Z" fill="url(#paint54_linear_31_30052)"/>
<path d="M1263.84 25.9887V36.6271H1303.38C1303.38 36.6271 1316.59 37.1724 1313.22 24.1313C1313.22 24.1313 1315.71 20.0958 1328.08 20.4394C1328.08 20.4394 1338.16 17.3978 1338.16 13.6235L1263.85 13.4844L1200.05 13.4077C1200.05 13.4077 1260.19 15.3502 1263.84 25.9887Z" fill="url(#paint55_linear_31_30052)"/>
<path d="M998.108 39.5662L998.017 38.6517H997.821C997.807 38.612 997.798 38.5864 997.798 38.5864H987.983L987.876 39.694C986.316 44.8031 980.017 67.3295 987.654 74.6225C989.753 76.6275 991.607 77.1671 993.209 76.8377C994.714 76.9967 996.427 76.3889 998.346 74.5572C1006.02 67.2358 999.633 44.5532 998.108 39.5662Z" fill="url(#paint56_linear_31_30052)"/>
<path d="M1137.85 41.1282L1137.76 40.2138H1137.56C1137.55 40.174 1137.54 40.1484 1137.54 40.1484H1127.73L1127.62 41.256C1126.06 46.3651 1119.76 68.8915 1127.4 76.1845C1129.5 78.1895 1131.35 78.7291 1132.95 78.3997C1134.46 78.5587 1136.17 77.9509 1138.09 76.1192C1145.76 68.7978 1139.38 46.118 1137.85 41.1282Z" fill="url(#paint57_linear_31_30052)"/>
<path d="M1312.46 40.0063H1259.06V42.8463H1312.46V40.0063Z" fill="#603913"/>
<path d="M1302.41 83.8185C1302.41 83.8185 1194.44 75.2163 1149.16 76.926L1271.65 86.3262L1302.41 83.8185Z" fill="url(#paint58_linear_31_30052)"/>
<path d="M1289.03 43.9344L1288.94 42.9205H1288.74C1288.73 42.8751 1288.72 42.8467 1288.72 42.8467H1278.9L1278.8 44.0764C1277.24 49.7534 1270.94 74.7847 1278.58 82.8842C1280.67 85.1107 1282.53 85.71 1284.13 85.3465C1285.64 85.5225 1287.35 84.8466 1289.27 82.8104C1296.94 74.6796 1290.55 49.4751 1289.03 43.9344Z" fill="url(#paint59_linear_31_30052)"/>
<path d="M841.593 79.5585C841.593 79.5585 942.564 72.9442 987.85 74.6539L872.355 82.0661L841.593 79.5585Z" fill="url(#paint60_linear_31_30052)"/>
<path d="M854.975 39.6741L855.065 38.6603H855.261C855.276 38.6148 855.284 38.5864 855.284 38.5864H865.099L865.207 39.8161C866.766 45.4932 873.065 70.5244 865.428 78.624C863.33 80.8505 861.475 81.4497 859.873 81.0862C858.368 81.2623 856.656 80.5864 854.736 78.5501C847.065 70.4194 853.449 45.2148 854.975 39.6741Z" fill="url(#paint61_linear_31_30052)"/>
<path d="M883.28 37.9249H832.729C831.945 37.9249 831.309 37.2888 831.309 36.5049C831.309 35.7211 831.945 35.085 832.729 35.085H883.28C884.064 35.085 884.7 35.7211 884.7 36.5049C884.7 37.2888 884.064 37.9249 883.28 37.9249Z" fill="#603913"/>
<path d="M1138.88 44.1725H1127.8C1125.45 44.1725 1123.54 42.2641 1123.54 39.9126H1143.14C1143.14 42.2641 1141.23 44.1725 1138.88 44.1725Z" fill="url(#paint62_linear_31_30052)"/>
<path d="M998.582 42.1847H987.506C985.155 42.1847 983.246 40.2763 983.246 37.9248H1002.84C1002.84 40.2763 1000.93 42.1847 998.582 42.1847Z" fill="url(#paint63_linear_31_30052)"/>
<path d="M1278.32 47.0128H1289.39C1291.74 47.0128 1293.65 45.1044 1293.65 42.7529H1274.06C1274.06 45.1044 1275.97 47.0128 1278.32 47.0128Z" fill="url(#paint64_linear_31_30052)"/>
<path d="M854.597 42.1847H865.673C868.024 42.1847 869.933 40.2763 869.933 37.9248H850.337C850.337 40.2763 852.245 42.1847 854.597 42.1847Z" fill="url(#paint65_linear_31_30052)"/>
</g>
<g clip-path="url(#clip4_31_30052)">
<path d="M1236.01 5.6716C1236.01 5.6716 1486.14 -8.81213 1772.4 8.51154L1236.01 5.6716Z" fill="#C49A6C"/>
<path d="M1235.96 5.67139C1235.96 5.67139 1232.35 6.23938 1235.96 8.51133C1239.57 10.7833 1725.98 10.2494 1771.32 11.5103C1771.32 11.5103 1776.73 8.79533 1771.32 8.51133C1765.91 8.22734 1235.96 5.67139 1235.96 5.67139Z" fill="#603913"/>
<path d="M1237.6 8.70459C1237.6 8.70459 1234.68 13.0554 1243.7 14.1914C1252.72 15.3273 1251.39 19.3033 1251.39 19.3033C1251.39 19.3033 1248.87 36.0306 1269.03 35.7466C1286.44 35.5023 1314.76 35.7466 1314.76 35.7466L1314.26 23.5632C1314.26 23.5632 1367.85 6.23952 1412.68 25.8351V35.207L1432.84 36.3429V26.4031C1432.84 26.4031 1490.94 2.2636 1555.4 27.8231V36.9081H1575.46L1575.56 28.3911C1575.56 28.3911 1628.35 5.10354 1688.57 30.3791L1689.1 40.0349H1738.18C1742.73 40.0434 1750.85 32.0887 1751.44 27.2551C1751.53 26.4628 1773.46 24.0062 1771.07 11.3514L1237.6 8.70459Z" fill="url(#paint66_linear_31_30052)"/>
<path d="M1533.53 18.3149C1474.99 -1.05067 1432.05 26.6871 1432.05 26.6871V35.7721L1443.46 32.9066V28.675C1450.92 23.3501 1462.08 20.3767 1474.13 18.8318C1496.43 17.8122 1528.36 18.6443 1544 29.811V34.0425L1555.41 36.908V27.823C1555.4 27.823 1547.37 22.6373 1533.53 18.3149Z" fill="url(#paint67_linear_31_30052)"/>
<path d="M1403.93 32.478L1412.68 35.2072L1432.05 35.7724L1443.46 32.9069C1443.46 32.9069 1445.05 33.5032 1443.46 35.2072L1432.05 38.6663H1412.68L1403.93 35.2072C1403.93 35.2072 1401.01 33.7872 1403.93 32.478Z" fill="#603913"/>
<path d="M1301.73 81.7824L1306.52 100.81L1428.75 96.2661C1560.11 95.6924 1696.11 105.414 1696.11 105.414L1701.65 86.3263C1470.75 61.0508 1301.73 81.7824 1301.73 81.7824Z" fill="url(#paint68_linear_31_30052)"/>
<path d="M1307.37 83.4862L1311.61 98.5379L1495.45 91.722C1610.32 97.6859 1693.08 101.094 1693.08 101.094L1696 89.4501C1476.94 69.2069 1307.37 83.4862 1307.37 83.4862Z" fill="url(#paint69_linear_31_30052)"/>
<path d="M1301.73 81.7593L1270.38 79.2261L1265.72 95.8966L1307.27 100.847L1301.73 81.7593Z" fill="url(#paint70_linear_31_30052)"/>
<path d="M1361.22 13.6235C1314.27 16.4635 1300.88 25.0202 1300.88 25.0202L1300.84 35.7467H1314.76L1314.25 25.0202L1360.82 16.8696C1371.41 17.9601 1400.46 21.4618 1402.88 27.2553V32.4779L1412.68 35.2071V25.8353C1412.68 25.8353 1392.26 16.4635 1361.22 13.6235Z" fill="url(#paint71_linear_31_30052)"/>
<path d="M1299.41 21.8591V30.6629H1262.08C1262.08 30.6629 1253.78 30.3789 1256.96 19.5872C1256.96 19.5872 1258.03 13.0553 1246.35 13.3393C1246.35 13.3393 1240.52 13.3393 1240.52 10.2153L1299.41 11.5103L1359.65 11.4479C1359.65 11.4479 1302.86 13.0553 1299.41 21.8591Z" fill="url(#paint72_linear_31_30052)"/>
<path d="M1371.83 11.6357C1371.83 11.6357 1407.92 17.2247 1414.15 24.37V33.8498H1429.96V25.0232C1429.96 25.0232 1453.04 11.5448 1474.25 10.7383L1371.83 11.6357Z" fill="url(#paint73_linear_31_30052)"/>
<path d="M1428.11 39.5662L1428.02 38.6517H1427.82C1427.81 38.612 1427.8 38.5864 1427.8 38.5864H1417.98L1417.88 39.694C1416.32 44.8031 1410.02 67.3295 1417.65 74.6225C1419.75 76.6275 1421.61 77.1671 1423.21 76.8377C1424.71 76.9967 1426.43 76.3889 1428.35 74.5572C1436.02 67.2358 1429.63 44.5532 1428.11 39.5662Z" fill="url(#paint74_linear_31_30052)"/>
<path d="M1271.59 79.5585C1271.59 79.5585 1372.56 72.9442 1417.85 74.6539L1302.36 82.0661L1271.59 79.5585Z" fill="url(#paint75_linear_31_30052)"/>
<path d="M1284.97 39.6741L1285.07 38.6603H1285.26C1285.28 38.6148 1285.28 38.5864 1285.28 38.5864H1295.1L1295.21 39.8161C1296.77 45.4932 1303.06 70.5244 1295.43 78.624C1293.33 80.8505 1291.48 81.4497 1289.87 81.0862C1288.37 81.2623 1286.66 80.5864 1284.74 78.5501C1277.07 70.4194 1283.45 45.2148 1284.97 39.6741Z" fill="url(#paint76_linear_31_30052)"/>
<path d="M1313.28 37.9249H1262.73C1261.95 37.9249 1261.31 37.2888 1261.31 36.5049C1261.31 35.7211 1261.95 35.085 1262.73 35.085H1313.28C1314.06 35.085 1314.7 35.7211 1314.7 36.5049C1314.7 37.2888 1314.06 37.9249 1313.28 37.9249Z" fill="#603913"/>
<path d="M1428.58 42.1847H1417.51C1415.15 42.1847 1413.25 40.2763 1413.25 37.9248H1432.84C1432.84 40.2763 1430.93 42.1847 1428.58 42.1847Z" fill="url(#paint77_linear_31_30052)"/>
<path d="M1284.6 42.1847H1295.67C1298.02 42.1847 1299.93 40.2763 1299.93 37.9248H1280.34C1280.34 40.2763 1282.25 42.1847 1284.6 42.1847Z" fill="url(#paint78_linear_31_30052)"/>
</g>
</g>
<defs>
<linearGradient id="paint0_linear_31_30052" x1="-52.851" y1="24.3697" x2="481.255" y2="24.3697" gradientUnits="userSpaceOnUse">
<stop stop-color="#3C2415"/>
<stop offset="0.3145" stop-color="#C49A6C"/>
<stop offset="1" stop-color="#603913"/>
</linearGradient>
<linearGradient id="paint1_linear_31_30052" x1="203.577" y1="48.1581" x2="203.872" y2="15.5247" gradientUnits="userSpaceOnUse">
<stop stop-color="#FFF200"/>
<stop offset="0.6261" stop-color="#C49A6C"/>
<stop offset="1" stop-color="#603913"/>
</linearGradient>
<linearGradient id="paint2_linear_31_30052" x1="341.845" y1="42.5147" x2="342.625" y2="21.547" gradientUnits="userSpaceOnUse">
<stop stop-color="#FFF200"/>
<stop offset="0.6261" stop-color="#C49A6C"/>
<stop offset="1" stop-color="#603913"/>
</linearGradient>
<linearGradient id="paint3_linear_31_30052" x1="212.041" y1="62.2729" x2="211.847" y2="74.2729" gradientUnits="userSpaceOnUse">
<stop stop-color="#FFF200"/>
<stop offset="0.4062" stop-color="#C49A6C"/>
<stop offset="1" stop-color="#603913"/>
</linearGradient>
<linearGradient id="paint4_linear_31_30052" x1="17.409" y1="91.2563" x2="405.998" y2="89.1823" gradientUnits="userSpaceOnUse">
<stop stop-color="#3C2415"/>
<stop offset="0.3145" stop-color="#C49A6C"/>
<stop offset="1" stop-color="#603913"/>
</linearGradient>
<linearGradient id="paint5_linear_31_30052" x1="423.856" y1="71.7301" x2="427.692" y2="108.184" gradientUnits="userSpaceOnUse">
<stop stop-color="#3C2415"/>
<stop offset="0.3145" stop-color="#C49A6C"/>
<stop offset="1" stop-color="#603913"/>
</linearGradient>
<linearGradient id="paint6_linear_31_30052" x1="-0.426522" y1="69.1223" x2="-4.29282" y2="105.863" gradientUnits="userSpaceOnUse">
<stop stop-color="#3C2415"/>
<stop offset="0.3145" stop-color="#C49A6C"/>
<stop offset="1" stop-color="#603913"/>
</linearGradient>
<linearGradient id="paint7_linear_31_30052" x1="66.2155" y1="43.7454" x2="67.3459" y2="16.5784" gradientUnits="userSpaceOnUse">
<stop stop-color="#FFF200"/>
<stop offset="0.6261" stop-color="#C49A6C"/>
<stop offset="1" stop-color="#603913"/>
</linearGradient>
<linearGradient id="paint8_linear_31_30052" x1="10.8733" y1="37.5462" x2="10.0815" y2="10.8173" gradientUnits="userSpaceOnUse">
<stop stop-color="#3C2415"/>
<stop offset="0.3145" stop-color="#C49A6C"/>
<stop offset="1" stop-color="#603913"/>
</linearGradient>
<linearGradient id="paint9_linear_31_30052" x1="133.352" y1="41.6215" x2="133.059" y2="13.1186" gradientUnits="userSpaceOnUse">
<stop stop-color="#3C2415"/>
<stop offset="0.3145" stop-color="#C49A6C"/>
<stop offset="1" stop-color="#603913"/>
</linearGradient>
<linearGradient id="paint10_linear_31_30052" x1="275.568" y1="46.6952" x2="276.245" y2="11.2988" gradientUnits="userSpaceOnUse">
<stop stop-color="#3C2415"/>
<stop offset="0.3145" stop-color="#C49A6C"/>
<stop offset="1" stop-color="#603913"/>
</linearGradient>
<linearGradient id="paint11_linear_31_30052" x1="407.805" y1="43.9863" x2="409.077" y2="14.0874" gradientUnits="userSpaceOnUse">
<stop stop-color="#3C2415"/>
<stop offset="0.3145" stop-color="#C49A6C"/>
<stop offset="1" stop-color="#603913"/>
</linearGradient>
<linearGradient id="paint12_linear_31_30052" x1="163.838" y1="7.77171" x2="118.089" y2="80.9368" gradientUnits="userSpaceOnUse">
<stop offset="0.3357" stop-color="#FFF200"/>
<stop offset="0.5776" stop-color="#C49A6C"/>
<stop offset="0.7773" stop-color="#603913"/>
</linearGradient>
<linearGradient id="paint13_linear_31_30052" x1="252.289" y1="4.22404" x2="281.976" y2="85.2473" gradientUnits="userSpaceOnUse">
<stop offset="0.451" stop-color="#FFF200"/>
<stop offset="0.5702" stop-color="#C49A6C"/>
<stop offset="0.8252" stop-color="#603913"/>
</linearGradient>
<linearGradient id="paint14_linear_31_30052" x1="365.676" y1="64.5587" x2="365.837" y2="87.9141" gradientUnits="userSpaceOnUse">
<stop offset="0.451" stop-color="#FFF200"/>
<stop offset="0.6261" stop-color="#C49A6C"/>
<stop offset="1" stop-color="#603913"/>
</linearGradient>
<linearGradient id="paint15_linear_31_30052" x1="402.556" y1="1.87286" x2="433.364" y2="92.6593" gradientUnits="userSpaceOnUse">
<stop offset="0.451" stop-color="#FFF200"/>
<stop offset="0.5702" stop-color="#C49A6C"/>
<stop offset="0.8252" stop-color="#603913"/>
</linearGradient>
<linearGradient id="paint16_linear_31_30052" x1="54.8079" y1="64.5291" x2="54.6782" y2="83.3848" gradientUnits="userSpaceOnUse">
<stop offset="0.451" stop-color="#FFF200"/>
<stop offset="0.6261" stop-color="#C49A6C"/>
<stop offset="1" stop-color="#603913"/>
</linearGradient>
<linearGradient id="paint17_linear_31_30052" x1="34.4288" y1="-0.214121" x2="-13.5689" y2="82.7769" gradientUnits="userSpaceOnUse">
<stop offset="0.4882" stop-color="#FFF200"/>
<stop offset="0.6261" stop-color="#C49A6C"/>
<stop offset="0.8862" stop-color="#603913"/>
</linearGradient>
<linearGradient id="paint18_linear_31_30052" x1="273.303" y1="34.9279" x2="273.371" y2="44.7455" gradientUnits="userSpaceOnUse">
<stop offset="0.451" stop-color="#FFF200"/>
<stop offset="0.6261" stop-color="#C49A6C"/>
<stop offset="1" stop-color="#603913"/>
</linearGradient>
<linearGradient id="paint19_linear_31_30052" x1="133.01" y1="32.9401" x2="133.077" y2="42.7577" gradientUnits="userSpaceOnUse">
<stop offset="0.451" stop-color="#FFF200"/>
<stop offset="0.6261" stop-color="#C49A6C"/>
<stop offset="1" stop-color="#603913"/>
</linearGradient>
<linearGradient id="paint20_linear_31_30052" x1="423.889" y1="37.7682" x2="423.821" y2="47.5858" gradientUnits="userSpaceOnUse">
<stop offset="0.451" stop-color="#FFF200"/>
<stop offset="0.6261" stop-color="#C49A6C"/>
<stop offset="1" stop-color="#603913"/>
</linearGradient>
<linearGradient id="paint21_linear_31_30052" x1="0.169013" y1="32.9401" x2="0.101508" y2="42.7577" gradientUnits="userSpaceOnUse">
<stop offset="0.451" stop-color="#FFF200"/>
<stop offset="0.6261" stop-color="#C49A6C"/>
<stop offset="1" stop-color="#603913"/>
</linearGradient>
<linearGradient id="paint22_linear_31_30052" x1="377.149" y1="24.3697" x2="911.255" y2="24.3697" gradientUnits="userSpaceOnUse">
<stop stop-color="#3C2415"/>
<stop offset="0.3145" stop-color="#C49A6C"/>
<stop offset="1" stop-color="#603913"/>
</linearGradient>
<linearGradient id="paint23_linear_31_30052" x1="633.577" y1="48.1581" x2="633.872" y2="15.5247" gradientUnits="userSpaceOnUse">
<stop stop-color="#FFF200"/>
<stop offset="0.6261" stop-color="#C49A6C"/>
<stop offset="1" stop-color="#603913"/>
</linearGradient>
<linearGradient id="paint24_linear_31_30052" x1="771.845" y1="42.5147" x2="772.625" y2="21.547" gradientUnits="userSpaceOnUse">
<stop stop-color="#FFF200"/>
<stop offset="0.6261" stop-color="#C49A6C"/>
<stop offset="1" stop-color="#603913"/>
</linearGradient>
<linearGradient id="paint25_linear_31_30052" x1="642.041" y1="62.2729" x2="641.848" y2="74.2729" gradientUnits="userSpaceOnUse">
<stop stop-color="#FFF200"/>
<stop offset="0.4062" stop-color="#C49A6C"/>
<stop offset="1" stop-color="#603913"/>
</linearGradient>
<linearGradient id="paint26_linear_31_30052" x1="447.409" y1="91.2563" x2="835.998" y2="89.1823" gradientUnits="userSpaceOnUse">
<stop stop-color="#3C2415"/>
<stop offset="0.3145" stop-color="#C49A6C"/>
<stop offset="1" stop-color="#603913"/>
</linearGradient>
<linearGradient id="paint27_linear_31_30052" x1="853.856" y1="71.7301" x2="857.692" y2="108.184" gradientUnits="userSpaceOnUse">
<stop stop-color="#3C2415"/>
<stop offset="0.3145" stop-color="#C49A6C"/>
<stop offset="1" stop-color="#603913"/>
</linearGradient>
<linearGradient id="paint28_linear_31_30052" x1="429.573" y1="69.1223" x2="425.707" y2="105.863" gradientUnits="userSpaceOnUse">
<stop stop-color="#3C2415"/>
<stop offset="0.3145" stop-color="#C49A6C"/>
<stop offset="1" stop-color="#603913"/>
</linearGradient>
<linearGradient id="paint29_linear_31_30052" x1="496.216" y1="43.7454" x2="497.346" y2="16.5784" gradientUnits="userSpaceOnUse">
<stop stop-color="#FFF200"/>
<stop offset="0.6261" stop-color="#C49A6C"/>
<stop offset="1" stop-color="#603913"/>
</linearGradient>
<linearGradient id="paint30_linear_31_30052" x1="440.873" y1="37.5462" x2="440.082" y2="10.8173" gradientUnits="userSpaceOnUse">
<stop stop-color="#3C2415"/>
<stop offset="0.3145" stop-color="#C49A6C"/>
<stop offset="1" stop-color="#603913"/>
</linearGradient>
<linearGradient id="paint31_linear_31_30052" x1="563.352" y1="41.6215" x2="563.059" y2="13.1186" gradientUnits="userSpaceOnUse">
<stop stop-color="#3C2415"/>
<stop offset="0.3145" stop-color="#C49A6C"/>
<stop offset="1" stop-color="#603913"/>
</linearGradient>
<linearGradient id="paint32_linear_31_30052" x1="705.568" y1="46.6952" x2="706.245" y2="11.2988" gradientUnits="userSpaceOnUse">
<stop stop-color="#3C2415"/>
<stop offset="0.3145" stop-color="#C49A6C"/>
<stop offset="1" stop-color="#603913"/>
</linearGradient>
<linearGradient id="paint33_linear_31_30052" x1="837.805" y1="43.9863" x2="839.077" y2="14.0874" gradientUnits="userSpaceOnUse">
<stop stop-color="#3C2415"/>
<stop offset="0.3145" stop-color="#C49A6C"/>
<stop offset="1" stop-color="#603913"/>
</linearGradient>
<linearGradient id="paint34_linear_31_30052" x1="593.838" y1="7.77171" x2="548.089" y2="80.9368" gradientUnits="userSpaceOnUse">
<stop offset="0.3357" stop-color="#FFF200"/>
<stop offset="0.5776" stop-color="#C49A6C"/>
<stop offset="0.7773" stop-color="#603913"/>
</linearGradient>
<linearGradient id="paint35_linear_31_30052" x1="682.289" y1="4.22404" x2="711.976" y2="85.2473" gradientUnits="userSpaceOnUse">
<stop offset="0.451" stop-color="#FFF200"/>
<stop offset="0.5702" stop-color="#C49A6C"/>
<stop offset="0.8252" stop-color="#603913"/>
</linearGradient>
<linearGradient id="paint36_linear_31_30052" x1="795.676" y1="64.5587" x2="795.837" y2="87.9141" gradientUnits="userSpaceOnUse">
<stop offset="0.451" stop-color="#FFF200"/>
<stop offset="0.6261" stop-color="#C49A6C"/>
<stop offset="1" stop-color="#603913"/>
</linearGradient>
<linearGradient id="paint37_linear_31_30052" x1="832.556" y1="1.87286" x2="863.364" y2="92.6593" gradientUnits="userSpaceOnUse">
<stop offset="0.451" stop-color="#FFF200"/>
<stop offset="0.5702" stop-color="#C49A6C"/>
<stop offset="0.8252" stop-color="#603913"/>
</linearGradient>
<linearGradient id="paint38_linear_31_30052" x1="484.808" y1="64.5291" x2="484.678" y2="83.3848" gradientUnits="userSpaceOnUse">
<stop offset="0.451" stop-color="#FFF200"/>
<stop offset="0.6261" stop-color="#C49A6C"/>
<stop offset="1" stop-color="#603913"/>
</linearGradient>
<linearGradient id="paint39_linear_31_30052" x1="464.429" y1="-0.214121" x2="416.431" y2="82.7769" gradientUnits="userSpaceOnUse">
<stop offset="0.4882" stop-color="#FFF200"/>
<stop offset="0.6261" stop-color="#C49A6C"/>
<stop offset="0.8862" stop-color="#603913"/>
</linearGradient>
<linearGradient id="paint40_linear_31_30052" x1="703.303" y1="34.9279" x2="703.371" y2="44.7455" gradientUnits="userSpaceOnUse">
<stop offset="0.451" stop-color="#FFF200"/>
<stop offset="0.6261" stop-color="#C49A6C"/>
<stop offset="1" stop-color="#603913"/>
</linearGradient>
<linearGradient id="paint41_linear_31_30052" x1="563.01" y1="32.9401" x2="563.077" y2="42.7577" gradientUnits="userSpaceOnUse">
<stop offset="0.451" stop-color="#FFF200"/>
<stop offset="0.6261" stop-color="#C49A6C"/>
<stop offset="1" stop-color="#603913"/>
</linearGradient>
<linearGradient id="paint42_linear_31_30052" x1="853.889" y1="37.7682" x2="853.821" y2="47.5858" gradientUnits="userSpaceOnUse">
<stop offset="0.451" stop-color="#FFF200"/>
<stop offset="0.6261" stop-color="#C49A6C"/>
<stop offset="1" stop-color="#603913"/>
</linearGradient>
<linearGradient id="paint43_linear_31_30052" x1="430.169" y1="32.9401" x2="430.102" y2="42.7577" gradientUnits="userSpaceOnUse">
<stop offset="0.451" stop-color="#FFF200"/>
<stop offset="0.6261" stop-color="#C49A6C"/>
<stop offset="1" stop-color="#603913"/>
</linearGradient>
<linearGradient id="paint44_linear_31_30052" x1="807.149" y1="24.3697" x2="1341.25" y2="24.3697" gradientUnits="userSpaceOnUse">
<stop stop-color="#3C2415"/>
<stop offset="0.3145" stop-color="#C49A6C"/>
<stop offset="1" stop-color="#603913"/>
</linearGradient>
<linearGradient id="paint45_linear_31_30052" x1="1063.58" y1="48.1581" x2="1063.87" y2="15.5247" gradientUnits="userSpaceOnUse">
<stop stop-color="#FFF200"/>
<stop offset="0.6261" stop-color="#C49A6C"/>
<stop offset="1" stop-color="#603913"/>
</linearGradient>
<linearGradient id="paint46_linear_31_30052" x1="1201.85" y1="42.5147" x2="1202.63" y2="21.547" gradientUnits="userSpaceOnUse">
<stop stop-color="#FFF200"/>
<stop offset="0.6261" stop-color="#C49A6C"/>
<stop offset="1" stop-color="#603913"/>
</linearGradient>
<linearGradient id="paint47_linear_31_30052" x1="1072.04" y1="62.2729" x2="1071.85" y2="74.2729" gradientUnits="userSpaceOnUse">
<stop stop-color="#FFF200"/>
<stop offset="0.4062" stop-color="#C49A6C"/>
<stop offset="1" stop-color="#603913"/>
</linearGradient>
<linearGradient id="paint48_linear_31_30052" x1="877.409" y1="91.2563" x2="1266" y2="89.1823" gradientUnits="userSpaceOnUse">
<stop stop-color="#3C2415"/>
<stop offset="0.3145" stop-color="#C49A6C"/>
<stop offset="1" stop-color="#603913"/>
</linearGradient>
<linearGradient id="paint49_linear_31_30052" x1="1283.86" y1="71.7301" x2="1287.69" y2="108.184" gradientUnits="userSpaceOnUse">
<stop stop-color="#3C2415"/>
<stop offset="0.3145" stop-color="#C49A6C"/>
<stop offset="1" stop-color="#603913"/>
</linearGradient>
<linearGradient id="paint50_linear_31_30052" x1="859.573" y1="69.1223" x2="855.707" y2="105.863" gradientUnits="userSpaceOnUse">
<stop stop-color="#3C2415"/>
<stop offset="0.3145" stop-color="#C49A6C"/>
<stop offset="1" stop-color="#603913"/>
</linearGradient>
<linearGradient id="paint51_linear_31_30052" x1="926.216" y1="43.7454" x2="927.346" y2="16.5784" gradientUnits="userSpaceOnUse">
<stop stop-color="#FFF200"/>
<stop offset="0.6261" stop-color="#C49A6C"/>
<stop offset="1" stop-color="#603913"/>
</linearGradient>
<linearGradient id="paint52_linear_31_30052" x1="870.873" y1="37.5462" x2="870.082" y2="10.8173" gradientUnits="userSpaceOnUse">
<stop stop-color="#3C2415"/>
<stop offset="0.3145" stop-color="#C49A6C"/>
<stop offset="1" stop-color="#603913"/>
</linearGradient>
<linearGradient id="paint53_linear_31_30052" x1="993.352" y1="41.6215" x2="993.059" y2="13.1186" gradientUnits="userSpaceOnUse">
<stop stop-color="#3C2415"/>
<stop offset="0.3145" stop-color="#C49A6C"/>
<stop offset="1" stop-color="#603913"/>
</linearGradient>
<linearGradient id="paint54_linear_31_30052" x1="1135.57" y1="46.6952" x2="1136.25" y2="11.2988" gradientUnits="userSpaceOnUse">
<stop stop-color="#3C2415"/>
<stop offset="0.3145" stop-color="#C49A6C"/>
<stop offset="1" stop-color="#603913"/>
</linearGradient>
<linearGradient id="paint55_linear_31_30052" x1="1267.8" y1="43.9863" x2="1269.08" y2="14.0874" gradientUnits="userSpaceOnUse">
<stop stop-color="#3C2415"/>
<stop offset="0.3145" stop-color="#C49A6C"/>
<stop offset="1" stop-color="#603913"/>
</linearGradient>
<linearGradient id="paint56_linear_31_30052" x1="1023.84" y1="7.77171" x2="978.089" y2="80.9368" gradientUnits="userSpaceOnUse">
<stop offset="0.3357" stop-color="#FFF200"/>
<stop offset="0.5776" stop-color="#C49A6C"/>
<stop offset="0.7773" stop-color="#603913"/>
</linearGradient>
<linearGradient id="paint57_linear_31_30052" x1="1112.29" y1="4.22404" x2="1141.98" y2="85.2473" gradientUnits="userSpaceOnUse">
<stop offset="0.451" stop-color="#FFF200"/>
<stop offset="0.5702" stop-color="#C49A6C"/>
<stop offset="0.8252" stop-color="#603913"/>
</linearGradient>
<linearGradient id="paint58_linear_31_30052" x1="1225.68" y1="64.5587" x2="1225.84" y2="87.9141" gradientUnits="userSpaceOnUse">
<stop offset="0.451" stop-color="#FFF200"/>
<stop offset="0.6261" stop-color="#C49A6C"/>
<stop offset="1" stop-color="#603913"/>
</linearGradient>
<linearGradient id="paint59_linear_31_30052" x1="1262.56" y1="1.87286" x2="1293.36" y2="92.6593" gradientUnits="userSpaceOnUse">
<stop offset="0.451" stop-color="#FFF200"/>
<stop offset="0.5702" stop-color="#C49A6C"/>
<stop offset="0.8252" stop-color="#603913"/>
</linearGradient>
<linearGradient id="paint60_linear_31_30052" x1="914.808" y1="64.5291" x2="914.678" y2="83.3848" gradientUnits="userSpaceOnUse">
<stop offset="0.451" stop-color="#FFF200"/>
<stop offset="0.6261" stop-color="#C49A6C"/>
<stop offset="1" stop-color="#603913"/>
</linearGradient>
<linearGradient id="paint61_linear_31_30052" x1="894.429" y1="-0.214121" x2="846.431" y2="82.7769" gradientUnits="userSpaceOnUse">
<stop offset="0.4882" stop-color="#FFF200"/>
<stop offset="0.6261" stop-color="#C49A6C"/>
<stop offset="0.8862" stop-color="#603913"/>
</linearGradient>
<linearGradient id="paint62_linear_31_30052" x1="1133.3" y1="34.9279" x2="1133.37" y2="44.7455" gradientUnits="userSpaceOnUse">
<stop offset="0.451" stop-color="#FFF200"/>
<stop offset="0.6261" stop-color="#C49A6C"/>
<stop offset="1" stop-color="#603913"/>
</linearGradient>
<linearGradient id="paint63_linear_31_30052" x1="993.01" y1="32.9401" x2="993.077" y2="42.7577" gradientUnits="userSpaceOnUse">
<stop offset="0.451" stop-color="#FFF200"/>
<stop offset="0.6261" stop-color="#C49A6C"/>
<stop offset="1" stop-color="#603913"/>
</linearGradient>
<linearGradient id="paint64_linear_31_30052" x1="1283.89" y1="37.7682" x2="1283.82" y2="47.5858" gradientUnits="userSpaceOnUse">
<stop offset="0.451" stop-color="#FFF200"/>
<stop offset="0.6261" stop-color="#C49A6C"/>
<stop offset="1" stop-color="#603913"/>
</linearGradient>
<linearGradient id="paint65_linear_31_30052" x1="860.169" y1="32.9401" x2="860.102" y2="42.7577" gradientUnits="userSpaceOnUse">
<stop offset="0.451" stop-color="#FFF200"/>
<stop offset="0.6261" stop-color="#C49A6C"/>
<stop offset="1" stop-color="#603913"/>
</linearGradient>
<linearGradient id="paint66_linear_31_30052" x1="1237.15" y1="24.3697" x2="1771.25" y2="24.3697" gradientUnits="userSpaceOnUse">
<stop stop-color="#3C2415"/>
<stop offset="0.3145" stop-color="#C49A6C"/>
<stop offset="1" stop-color="#603913"/>
</linearGradient>
<linearGradient id="paint67_linear_31_30052" x1="1493.58" y1="48.1581" x2="1493.87" y2="15.5247" gradientUnits="userSpaceOnUse">
<stop stop-color="#FFF200"/>
<stop offset="0.6261" stop-color="#C49A6C"/>
<stop offset="1" stop-color="#603913"/>
</linearGradient>
<linearGradient id="paint68_linear_31_30052" x1="1502.04" y1="62.2729" x2="1501.85" y2="74.2729" gradientUnits="userSpaceOnUse">
<stop stop-color="#FFF200"/>
<stop offset="0.4062" stop-color="#C49A6C"/>
<stop offset="1" stop-color="#603913"/>
</linearGradient>
<linearGradient id="paint69_linear_31_30052" x1="1307.41" y1="91.2563" x2="1696" y2="89.1823" gradientUnits="userSpaceOnUse">
<stop stop-color="#3C2415"/>
<stop offset="0.3145" stop-color="#C49A6C"/>
<stop offset="1" stop-color="#603913"/>
</linearGradient>
<linearGradient id="paint70_linear_31_30052" x1="1289.57" y1="69.1223" x2="1285.71" y2="105.863" gradientUnits="userSpaceOnUse">
<stop stop-color="#3C2415"/>
<stop offset="0.3145" stop-color="#C49A6C"/>
<stop offset="1" stop-color="#603913"/>
</linearGradient>
<linearGradient id="paint71_linear_31_30052" x1="1356.22" y1="43.7454" x2="1357.35" y2="16.5784" gradientUnits="userSpaceOnUse">
<stop stop-color="#FFF200"/>
<stop offset="0.6261" stop-color="#C49A6C"/>
<stop offset="1" stop-color="#603913"/>
</linearGradient>
<linearGradient id="paint72_linear_31_30052" x1="1300.87" y1="37.5462" x2="1300.08" y2="10.8173" gradientUnits="userSpaceOnUse">
<stop stop-color="#3C2415"/>
<stop offset="0.3145" stop-color="#C49A6C"/>
<stop offset="1" stop-color="#603913"/>
</linearGradient>
<linearGradient id="paint73_linear_31_30052" x1="1423.35" y1="41.6215" x2="1423.06" y2="13.1186" gradientUnits="userSpaceOnUse">
<stop stop-color="#3C2415"/>
<stop offset="0.3145" stop-color="#C49A6C"/>
<stop offset="1" stop-color="#603913"/>
</linearGradient>
<linearGradient id="paint74_linear_31_30052" x1="1453.84" y1="7.77171" x2="1408.09" y2="80.9368" gradientUnits="userSpaceOnUse">
<stop offset="0.3357" stop-color="#FFF200"/>
<stop offset="0.5776" stop-color="#C49A6C"/>
<stop offset="0.7773" stop-color="#603913"/>
</linearGradient>
<linearGradient id="paint75_linear_31_30052" x1="1344.81" y1="64.5291" x2="1344.68" y2="83.3848" gradientUnits="userSpaceOnUse">
<stop offset="0.451" stop-color="#FFF200"/>
<stop offset="0.6261" stop-color="#C49A6C"/>
<stop offset="1" stop-color="#603913"/>
</linearGradient>
<linearGradient id="paint76_linear_31_30052" x1="1324.43" y1="-0.214121" x2="1276.43" y2="82.7769" gradientUnits="userSpaceOnUse">
<stop offset="0.4882" stop-color="#FFF200"/>
<stop offset="0.6261" stop-color="#C49A6C"/>
<stop offset="0.8862" stop-color="#603913"/>
</linearGradient>
<linearGradient id="paint77_linear_31_30052" x1="1423.01" y1="32.9401" x2="1423.08" y2="42.7577" gradientUnits="userSpaceOnUse">
<stop offset="0.451" stop-color="#FFF200"/>
<stop offset="0.6261" stop-color="#C49A6C"/>
<stop offset="1" stop-color="#603913"/>
</linearGradient>
<linearGradient id="paint78_linear_31_30052" x1="1290.17" y1="32.9401" x2="1290.1" y2="42.7577" gradientUnits="userSpaceOnUse">
<stop offset="0.451" stop-color="#FFF200"/>
<stop offset="0.6261" stop-color="#C49A6C"/>
<stop offset="1" stop-color="#603913"/>
</linearGradient>
<clipPath id="clip0_31_30052">
<rect width="1440" height="92" fill="white"/>
</clipPath>
<clipPath id="clip1_31_30052">
<rect width="430" height="105" fill="white"/>
</clipPath>
<clipPath id="clip2_31_30052">
<rect width="430" height="105" fill="white" transform="translate(430)"/>
</clipPath>
<clipPath id="clip3_31_30052">
<rect width="430" height="105" fill="white" transform="translate(860)"/>
</clipPath>
<clipPath id="clip4_31_30052">
<rect width="430" height="105" fill="white" transform="translate(1290)"/>
</clipPath>
</defs>
</svg>
